<svg width="1500" height="480" viewBox="0 0 1500 480" fill="none" xmlns="http://www.w3.org/2000/svg">
<path d="M1500 0H0V480H1500V0Z" fill="#051726"/>
<g clip-path="url(#clip0_230_1294)">
<g clip-path="url(#clip1_230_1294)">
<g clip-path="url(#clip2_230_1294)">
<g clip-path="url(#clip3_230_1294)">
<g clip-path="url(#clip4_230_1294)">
<g clip-path="url(#clip5_230_1294)">
<g clip-path="url(#clip6_230_1294)">
<path d="M304.591 162.734V249.562H277.149V162.734H250.048V149.991H331.693V162.734H304.591ZM367.432 150.415C367.432 152.171 367.102 153.833 366.441 155.4C365.761 156.967 364.845 158.326 363.694 159.478C362.542 160.629 361.183 161.536 359.616 162.196C358.049 162.876 356.387 163.216 354.632 163.216C352.876 163.216 351.233 162.876 349.704 162.196C348.156 161.536 346.806 160.629 345.654 159.478C344.503 158.326 343.587 156.967 342.907 155.4C342.246 153.833 341.916 152.171 341.916 150.415C341.916 148.66 342.246 147.008 342.907 145.46C343.587 143.93 344.503 142.59 345.654 141.438C346.806 140.286 348.156 139.371 349.704 138.691C351.233 138.03 352.876 137.7 354.632 137.7C356.387 137.7 358.049 138.03 359.616 138.691C361.183 139.371 362.542 140.286 363.694 141.438C364.845 142.59 365.761 143.93 366.441 145.46C367.102 147.008 367.432 148.66 367.432 150.415ZM366.384 169.786V249.562H342.964V169.786H366.384ZM509.511 202.948C509.511 208.442 508.86 214.163 507.557 220.11C506.273 226.057 504.47 231.853 502.148 237.498C499.807 243.143 497.003 248.476 493.737 253.498C490.471 258.52 486.827 262.882 482.806 266.582L474.027 261.796C475.367 259.398 476.594 256.699 477.708 253.697C478.803 250.714 479.813 247.561 480.738 244.238C481.663 240.915 482.475 237.507 483.174 234.015C483.853 230.503 484.439 227.01 484.93 223.536C485.402 220.044 485.76 216.664 486.006 213.398C486.232 210.132 486.346 207.064 486.346 204.194C486.346 202.589 486.298 200.843 486.204 198.955C486.11 197.067 485.911 195.179 485.609 193.291C485.307 191.403 484.864 189.591 484.278 187.854C483.674 186.117 482.853 184.569 481.814 183.209C480.776 181.85 479.483 180.774 477.935 179.981C476.387 179.169 474.536 178.763 472.384 178.763C470.251 178.763 468.438 179.33 466.947 180.462C465.455 181.595 464.181 183.058 463.124 184.852C462.047 186.646 461.198 188.675 460.575 190.941C459.971 193.187 459.499 195.453 459.159 197.737C458.838 200.022 458.621 202.202 458.507 204.279C458.394 206.356 458.338 208.102 458.338 209.518V249.562H435.031V212.378C435.031 210.755 435.059 208.801 435.116 206.516C435.153 204.232 435.097 201.853 434.946 199.38C434.776 196.888 434.474 194.405 434.039 191.932C433.605 189.459 432.916 187.259 431.972 185.333C431.028 183.389 429.744 181.812 428.121 180.604C426.516 179.377 424.486 178.763 422.032 178.763C419.974 178.763 418.237 179.339 416.821 180.491C415.424 181.642 414.254 183.134 413.31 184.965C412.347 186.778 411.601 188.826 411.072 191.111C410.544 193.395 410.157 195.67 409.911 197.936C409.647 200.22 409.496 202.391 409.458 204.449C409.42 206.507 409.401 208.197 409.401 209.518V249.562H385.953V169.701H394.93L403.511 188.307C405.456 181.85 408.514 176.809 412.687 173.184C416.859 169.578 422.4 167.775 429.31 167.775C435.522 167.775 440.685 169.069 444.801 171.655C448.898 174.223 452.117 178.414 454.458 184.229C455.798 181.699 457.29 179.415 458.932 177.376C460.575 175.355 462.397 173.628 464.398 172.193C466.399 170.758 468.618 169.663 471.053 168.908C473.507 168.153 476.207 167.775 479.152 167.775C484.59 167.775 489.234 168.663 493.086 170.437C496.937 172.212 500.081 174.666 502.516 177.8C504.97 180.934 506.745 184.654 507.84 188.958C508.954 193.263 509.511 197.926 509.511 202.948ZM544.287 211.671C547.138 212.312 549.989 212.822 552.84 213.2C555.71 213.558 558.589 213.738 561.477 213.738C564.536 213.738 567.368 213.455 569.973 212.888C572.56 212.303 574.816 211.331 576.741 209.971C578.648 208.612 580.159 206.809 581.273 204.562C582.368 202.297 582.915 199.484 582.915 196.123C582.915 193.404 582.547 190.912 581.811 188.647C581.074 186.381 579.979 184.446 578.526 182.841C577.072 181.236 575.288 179.981 573.173 179.075C571.059 178.169 568.595 177.715 565.782 177.715C563.158 177.715 560.798 178.206 558.702 179.188C556.587 180.151 554.737 181.454 553.151 183.096C551.565 184.72 550.206 186.617 549.073 188.788C547.941 190.96 547.006 193.216 546.27 195.557C545.533 197.917 545.005 200.296 544.684 202.693C544.363 205.091 544.202 207.347 544.202 209.462C544.202 209.839 544.202 210.207 544.202 210.566C544.202 210.944 544.231 211.312 544.287 211.671ZM601.861 195.897C601.861 199.182 601.332 202.099 600.275 204.647C599.218 207.215 597.773 209.462 595.942 211.387C594.13 213.332 592.025 214.974 589.627 216.315C587.229 217.636 584.671 218.732 581.952 219.6C579.234 220.45 576.43 221.054 573.541 221.412C570.672 221.79 567.877 221.979 565.159 221.979C561.704 221.979 558.296 221.733 554.935 221.243C551.556 220.771 548.233 219.996 544.967 218.92C545.477 221.979 546.279 224.877 547.374 227.614C548.488 230.352 549.97 232.75 551.82 234.808C553.652 236.847 555.917 238.47 558.617 239.678C561.317 240.868 564.507 241.463 568.189 241.463C570.643 241.463 572.975 241.094 575.184 240.358C577.393 239.622 579.422 238.583 581.273 237.243C583.104 235.921 584.728 234.336 586.144 232.485C587.541 230.635 588.683 228.587 589.57 226.34L599.652 230.078C598.142 233.703 596.055 236.847 593.393 239.509C590.75 242.152 587.758 244.342 584.416 246.079C581.074 247.797 577.525 249.071 573.768 249.902C570.011 250.733 566.292 251.148 562.61 251.148C556.512 251.148 550.886 250.128 545.732 248.089C540.559 246.032 536.112 243.162 532.393 239.48C528.655 235.78 525.729 231.371 523.614 226.255C521.481 221.139 520.414 215.541 520.414 209.462C520.414 203.382 521.481 197.785 523.614 192.668C525.729 187.552 528.655 183.143 532.393 179.443C536.112 175.761 540.559 172.892 545.732 170.834C550.886 168.795 556.512 167.775 562.61 167.775C565.555 167.775 568.567 167.983 571.644 168.398C574.74 168.814 577.742 169.465 580.65 170.352C583.557 171.259 586.295 172.429 588.862 173.864C591.449 175.28 593.695 177.036 595.602 179.131C597.528 181.246 599.048 183.681 600.162 186.438C601.294 189.194 601.861 192.347 601.861 195.897ZM664.022 162.734V249.562H636.581V162.734H609.479V149.991H691.124V162.734H664.022ZM692.228 215.409C692.228 211.765 692.54 207.989 693.163 204.081C693.786 200.154 694.683 196.236 695.853 192.328C697.024 188.401 698.44 184.522 700.101 180.689C701.763 176.875 703.632 173.213 705.709 169.701H722.785C721.634 173.156 720.605 176.762 719.698 180.519C718.792 184.276 718.037 188.033 717.433 191.79C716.81 195.547 716.319 199.229 715.96 202.835C715.62 206.422 715.45 209.764 715.45 212.86C715.45 214.653 715.526 216.57 715.677 218.609C715.847 220.667 716.14 222.725 716.555 224.782C716.97 226.821 717.556 228.785 718.311 230.673C719.085 232.58 720.066 234.251 721.256 235.685C722.464 237.139 723.927 238.3 725.645 239.169C727.382 240.018 729.421 240.443 731.762 240.443C734.066 240.443 736.133 239.924 737.964 238.886C739.777 237.847 741.372 236.488 742.75 234.808C744.148 233.127 745.328 231.202 746.29 229.03C747.253 226.859 748.046 224.631 748.669 222.347C749.292 220.063 749.755 217.825 750.057 215.635C750.359 213.464 750.51 211.501 750.51 209.745V169.701H773.874V249.562H764.896L754.163 230.956C752.823 234.052 751.199 236.856 749.292 239.367C747.385 241.878 745.205 244.03 742.75 245.824C740.315 247.617 737.606 249.005 734.623 249.987C731.659 250.95 728.449 251.431 724.994 251.431C719.462 251.431 714.648 250.534 710.551 248.741C706.435 246.928 703.018 244.436 700.299 241.264C697.581 238.093 695.551 234.298 694.211 229.88C692.889 225.481 692.228 220.657 692.228 215.409ZM875.003 203.798C875.003 209.178 874.351 214.795 873.049 220.648C871.727 226.519 869.896 232.259 867.555 237.866C865.195 243.492 862.381 248.788 859.115 253.753C855.849 258.7 852.253 262.976 848.326 266.582L839.547 261.796C840.793 259.493 841.973 256.916 843.086 254.065C844.181 251.195 845.182 248.165 846.088 244.974C846.976 241.765 847.778 238.451 848.495 235.034C849.213 231.636 849.817 228.266 850.308 224.924C850.78 221.582 851.148 218.326 851.412 215.154C851.658 212.001 851.781 209.065 851.781 206.346C851.781 204.553 851.714 202.627 851.582 200.569C851.45 198.53 851.158 196.482 850.704 194.424C850.27 192.366 849.685 190.393 848.949 188.505C848.212 186.617 847.231 184.956 846.003 183.521C844.795 182.105 843.322 180.953 841.586 180.066C839.849 179.197 837.81 178.763 835.469 178.763C833.165 178.763 831.117 179.282 829.323 180.321C827.511 181.359 825.915 182.719 824.537 184.399C823.159 186.079 821.979 188.005 820.997 190.176C819.997 192.347 819.185 194.566 818.562 196.831C817.939 199.116 817.486 201.362 817.202 203.571C816.938 205.799 816.806 207.781 816.806 209.518V249.562H793.357V169.701H802.363L813.068 188.307C814.352 185.211 815.966 182.398 817.91 179.868C819.836 177.338 822.026 175.176 824.481 173.383C826.916 171.57 829.625 170.182 832.608 169.22C835.572 168.257 838.782 167.775 842.237 167.775C847.769 167.775 852.583 168.672 856.68 170.466C860.796 172.259 864.213 174.761 866.931 177.97C869.65 181.18 871.68 184.984 873.02 189.383C874.342 193.782 875.003 198.587 875.003 203.798ZM909.637 211.671C912.507 212.312 915.367 212.822 918.218 213.2C921.069 213.558 923.948 213.738 926.856 213.738C929.895 213.738 932.718 213.455 935.323 212.888C937.929 212.303 940.194 211.331 942.12 209.971C944.027 208.612 945.537 206.809 946.651 204.562C947.746 202.297 948.293 199.484 948.293 196.123C948.293 193.404 947.925 190.912 947.189 188.647C946.453 186.381 945.358 184.446 943.904 182.841C942.45 181.236 940.666 179.981 938.552 179.075C936.437 178.169 933.973 177.715 931.16 177.715C928.517 177.715 926.148 178.206 924.052 179.188C921.956 180.151 920.116 181.454 918.53 183.096C916.944 184.72 915.584 186.617 914.452 188.788C913.319 190.96 912.384 193.216 911.648 195.557C910.912 197.917 910.383 200.296 910.062 202.693C909.741 205.091 909.581 207.347 909.581 209.462C909.581 209.839 909.581 210.207 909.581 210.566C909.581 210.944 909.6 211.312 909.637 211.671ZM967.239 195.897C967.239 199.182 966.711 202.099 965.653 204.647C964.596 207.215 963.152 209.462 961.32 211.387C959.508 213.332 957.403 214.974 955.005 216.315C952.607 217.636 950.049 218.732 947.331 219.6C944.612 220.45 941.808 221.054 938.92 221.412C936.05 221.79 933.256 221.979 930.537 221.979C927.082 221.979 923.665 221.733 920.285 221.243C916.925 220.771 913.611 219.996 910.345 218.92C910.855 221.979 911.657 224.877 912.752 227.614C913.866 230.352 915.339 232.75 917.17 234.808C919.021 236.847 921.296 238.47 923.995 239.678C926.695 240.868 929.886 241.463 933.567 241.463C936.003 241.463 938.334 241.094 940.562 240.358C942.771 239.622 944.801 238.583 946.651 237.243C948.482 235.921 950.106 234.336 951.522 232.485C952.919 230.635 954.052 228.587 954.92 226.34L965.03 230.078C963.501 233.703 961.415 236.847 958.772 239.509C956.129 242.152 953.136 244.342 949.794 246.079C946.453 247.797 942.903 249.071 939.146 249.902C935.389 250.733 931.66 251.148 927.96 251.148C921.881 251.148 916.264 250.128 911.11 248.089C905.937 246.032 901.481 243.162 897.743 239.48C894.024 235.78 891.097 231.371 888.964 226.255C886.85 221.139 885.792 215.541 885.792 209.462C885.792 203.382 886.85 197.785 888.964 192.668C891.097 187.552 894.024 183.143 897.743 179.443C901.481 175.761 905.937 172.892 911.11 170.834C916.264 168.795 921.881 167.775 927.96 167.775C930.924 167.775 933.945 167.983 937.022 168.398C940.119 168.814 943.12 169.465 946.028 170.352C948.916 171.259 951.654 172.429 954.241 173.864C956.827 175.28 959.074 177.036 960.981 179.131C962.887 181.246 964.407 183.681 965.54 186.438C966.673 189.194 967.239 192.347 967.239 195.897Z" fill="white"/>
</g>
</g>
<g clip-path="url(#clip7_230_1294)">
<g clip-path="url(#clip8_230_1294)">
<path d="M434.667 319.375H433.715L425.371 302.982V319.375H422.17V297.008H425.665L434.181 313.855L442.717 297.008H446.192V319.375H443.011V302.982L434.667 319.375ZM458.65 297.008H461.851L470.476 319.375H467.281L465.295 314.226H455.207L453.226 319.375H450.025L458.65 297.008ZM460.26 301.174L456.421 311.031H464.068L460.26 301.174ZM477.51 302.03V319.375H474.309V297.008H477.51L490.952 314.354V297.008H494.153V319.375H490.952L477.51 302.03ZM506.598 297.008H509.792L518.417 319.375H515.223L513.242 314.226H503.148L501.167 319.375H497.973L506.598 297.008ZM508.201 301.174L504.368 311.031H512.009L508.201 301.174ZM522.257 316.181V300.209C522.257 299.77 522.34 299.355 522.506 298.963C522.672 298.575 522.9 298.239 523.189 297.954C523.483 297.668 523.824 297.438 524.212 297.264C524.603 297.093 525.017 297.008 525.451 297.008H537.59C538.024 297.008 538.437 297.093 538.829 297.264C539.217 297.438 539.557 297.668 539.851 297.954C540.141 298.239 540.369 298.575 540.535 298.963C540.701 299.355 540.784 299.77 540.784 300.209V303.09H537.59V300.209H525.451V316.181H537.59V310.75H531.52V307.55H540.784V316.181C540.784 316.615 540.701 317.028 540.535 317.42C540.369 317.808 540.141 318.148 539.851 318.442C539.557 318.732 539.217 318.96 538.829 319.126C538.437 319.292 538.024 319.375 537.59 319.375H525.451C525.017 319.375 524.603 319.292 524.212 319.126C523.824 318.96 523.483 318.732 523.189 318.442C522.9 318.148 522.672 317.808 522.506 317.42C522.34 317.028 522.257 316.615 522.257 316.181ZM546.521 297.008H549.722V319.375H546.521V297.008ZM558.653 302.03V319.375H555.459V297.008H558.653L572.102 314.354V297.008H575.296V319.375H572.102L558.653 302.03ZM581.04 316.181V300.209C581.04 299.77 581.123 299.355 581.289 298.963C581.455 298.575 581.683 298.239 581.972 297.954C582.262 297.668 582.603 297.438 582.995 297.264C583.386 297.093 583.8 297.008 584.234 297.008H596.373C596.807 297.008 597.22 297.093 597.612 297.264C598 297.438 598.34 297.668 598.634 297.954C598.924 298.239 599.152 298.575 599.318 298.963C599.484 299.355 599.567 299.77 599.567 300.209V303.09H596.373V300.209H584.234V316.181H596.373V310.75H590.303V307.55H599.567V316.181C599.567 316.615 599.484 317.028 599.318 317.42C599.152 317.808 598.924 318.148 598.634 318.442C598.34 318.732 598 318.96 597.612 319.126C597.22 319.292 596.807 319.375 596.373 319.375H584.234C583.8 319.375 583.386 319.292 582.995 319.126C582.603 318.96 582.262 318.732 581.972 318.442C581.683 318.148 581.455 317.808 581.289 317.42C581.123 317.028 581.04 316.615 581.04 316.181ZM612.651 297.008H616.363L622.867 307.46L629.383 297.008H633.102L624.47 310.501V319.375H621.276V310.501L612.651 297.008ZM655.775 300.209V316.181C655.775 316.615 655.692 317.028 655.526 317.42C655.36 317.808 655.132 318.148 654.843 318.442C654.549 318.732 654.208 318.96 653.82 319.126C653.429 319.292 653.015 319.375 652.581 319.375H639.803C639.369 319.375 638.956 319.292 638.564 319.126C638.172 318.96 637.831 318.732 637.542 318.442C637.252 318.148 637.024 317.808 636.858 317.42C636.692 317.028 636.609 316.615 636.609 316.181V300.209C636.609 299.77 636.692 299.355 636.858 298.963C637.024 298.575 637.252 298.239 637.542 297.954C637.831 297.668 638.172 297.438 638.564 297.264C638.956 297.093 639.369 297.008 639.803 297.008H652.581C653.015 297.008 653.429 297.093 653.82 297.264C654.208 297.438 654.549 297.668 654.843 297.954C655.132 298.239 655.36 298.575 655.526 298.963C655.692 299.355 655.775 299.77 655.775 300.209ZM652.581 300.209H639.803V316.181H652.581V300.209ZM661.512 316.181V297.008H664.713V316.181H677.484V297.008H680.685V316.181C680.685 316.615 680.602 317.028 680.436 317.42C680.27 317.808 680.04 318.148 679.746 318.442C679.456 318.732 679.116 318.96 678.724 319.126C678.336 319.292 677.923 319.375 677.484 319.375H664.713C664.275 319.375 663.861 319.292 663.474 319.126C663.082 318.96 662.741 318.732 662.452 318.442C662.158 318.148 661.928 317.808 661.762 317.42C661.595 317.028 661.512 316.615 661.512 316.181ZM704.093 302.451V304.994C704.093 308.112 702.762 309.89 700.101 310.329L704.311 319.375H700.771L696.625 310.437H689.617V319.375H686.422V297.008H698.663C702.283 297.008 704.093 298.822 704.093 302.451ZM689.617 300.209V307.243H698.497C699.349 307.243 699.962 307.055 700.337 306.681C700.712 306.306 700.899 305.693 700.899 304.841V302.605C700.899 301.753 700.712 301.139 700.337 300.765C699.962 300.394 699.349 300.209 698.497 300.209H689.617ZM719.005 297.008H722.199V316.181H733.693V319.375H719.005V297.008ZM737.532 297.008H740.727V319.375H737.532V297.008ZM746.464 319.375V297.008H762.768V300.209H749.664V306.598H760.845V309.798H749.664V319.375H746.464ZM767.227 319.375V297.008H783.525V300.209H770.422V306.598H781.608V309.798H770.422V316.181H783.525V319.375H767.227ZM805.873 319.375H802.365L795.97 297.008H799.165L804.129 314.807L809.067 297.008H812.268L817.213 314.807L822.171 297.008H825.371L818.976 319.375H815.462L810.677 302.605L805.873 319.375ZM829.192 297.008H832.386V319.375H829.192V297.008ZM836.207 300.209V297.008H854.095V300.209H846.748V319.375H843.554V300.209H836.207ZM873.932 297.008H877.133V319.375H873.932V309.798H861.129V319.375H857.935V297.008H861.129V306.598H873.932V297.008ZM890.53 300.209V297.008H908.419V300.209H901.072V319.375H897.877V300.209H890.53ZM912.252 297.008H915.453V319.375H912.252V297.008ZM933.686 319.375H932.734L924.384 302.982V319.375H921.19V297.008H924.684L933.201 313.855L941.73 297.008H945.212V319.375H942.03V302.982L933.686 319.375ZM950.961 319.375V297.008H967.266V300.209H954.162V306.598H965.343V309.798H954.162V316.181H967.266V319.375H950.961Z" fill="#81FFD9"/>
</g>
</g>
</g>
</g>
<g clip-path="url(#clip9_230_1294)">
<path d="M1066.34 103H997.713V354.075H1066.34V103Z" fill="#81FFD9"/>
<path d="M1150.03 103H1081.4V354.075H1150.03V103Z" fill="#81FFD9" fill-opacity="0.75"/>
<path d="M1233.72 103H1165.1V354.075H1233.72V103Z" fill="#81FFD9" fill-opacity="0.5"/>
</g>
</g>
</g>
</g>
<defs>
<clipPath id="clip0_230_1294">
<rect width="1000" height="250" fill="white" transform="translate(249.394 103.537)"/>
</clipPath>
<clipPath id="clip1_230_1294">
<rect width="998.788" height="251.075" fill="white" transform="translate(250 103)"/>
</clipPath>
<clipPath id="clip2_230_1294">
<rect width="998.788" height="251.075" fill="white" transform="translate(250 103)"/>
</clipPath>
<clipPath id="clip3_230_1294">
<rect width="717.287" height="181.675" fill="white" transform="translate(250 137.7)"/>
</clipPath>
<clipPath id="clip4_230_1294">
<rect width="717.287" height="181.675" fill="white" transform="translate(250 137.7)"/>
</clipPath>
<clipPath id="clip5_230_1294">
<rect width="717.287" height="128.882" fill="white" transform="translate(250 137.7)"/>
</clipPath>
<clipPath id="clip6_230_1294">
<rect width="717.287" height="128.882" fill="white" transform="translate(250 137.7)"/>
</clipPath>
<clipPath id="clip7_230_1294">
<rect width="545.138" height="22.367" fill="white" transform="translate(422.149 297.008)"/>
</clipPath>
<clipPath id="clip8_230_1294">
<rect width="545.138" height="22.367" fill="white" transform="translate(422.149 297.008)"/>
</clipPath>
<clipPath id="clip9_230_1294">
<rect width="251.075" height="251.075" fill="white" transform="translate(997.713 103)"/>
</clipPath>
</defs>
</svg>
