<svg xmlns="http://www.w3.org/2000/svg" version="1.1" xmlns:xlink="http://www.w3.org/1999/xlink" xmlns:svgjs="http://svgjs.dev/svgjs" width="1500" height="1500" viewBox="0 0 1500 1500"><rect width="1500" height="1500" fill="#051726"></rect><g transform="matrix(0.6666666666666666,0,0,0.6666666666666666,249.39393939393938,625.5374934595396)"><svg viewBox="0 0 396 99" data-background-color="#051726" preserveAspectRatio="xMidYMid meet" height="375" width="1500" xmlns="http://www.w3.org/2000/svg" xmlns:xlink="http://www.w3.org/1999/xlink"><g id="tight-bounds" transform="matrix(1,0,0,1,0.2400000000000091,-0.21284740997771223)"><svg viewBox="0 0 395.52 99.42569481995542" height="99.42569481995542" width="395.52"><g><svg viewBox="0 0 550.7427629218829 138.4455447779384" height="99.42569481995542" width="395.52"><g transform="matrix(1,0,0,1,0,19.133935638629694)"><svg viewBox="0 0 395.52 100.17767350067902" height="100.17767350067902" width="395.52"><g id="textblocktransform"><svg viewBox="0 0 395.52 100.17767350067902" height="100.17767350067902" width="395.52" id="textblock"><g><svg viewBox="0 0 395.52 71.06702139965299" height="71.06702139965299" width="395.52"><g transform="matrix(1,0,0,1,0,0)"><svg width="395.52" viewBox="0.98 -39.5 253.25 45.51" height="71.06702139965299" data-palette-color="#ffffff"><path d="M20.24-30.66L20.24 0 10.55 0 10.55-30.66 0.98-30.66 0.98-35.16 29.81-35.16 29.81-30.66 20.24-30.66ZM42.43-35.01L42.43-35.01Q42.43-34.08 42.08-33.25 41.72-32.42 41.11-31.81 40.5-31.2 39.67-30.85 38.84-30.49 37.91-30.49L37.91-30.49Q36.98-30.49 36.17-30.85 35.35-31.2 34.74-31.81 34.13-32.42 33.77-33.25 33.42-34.08 33.42-35.01L33.42-35.01Q33.42-35.94 33.77-36.76 34.13-37.57 34.74-38.18 35.35-38.79 36.17-39.15 36.98-39.5 37.91-39.5L37.91-39.5Q38.84-39.5 39.67-39.15 40.5-38.79 41.11-38.18 41.72-37.57 42.08-36.76 42.43-35.94 42.43-35.01ZM42.06-28.17L42.06 0 33.79 0 33.79-28.17 42.06-28.17ZM92.6-16.46L92.6-16.46Q92.6-13.55 91.91-10.4 91.23-7.25 90-4.26 88.76-1.27 87.03 1.39 85.3 4.05 83.17 6.01L83.17 6.01 80.07 4.32Q80.78 3.05 81.37 1.46 81.95-0.12 82.44-1.88 82.93-3.64 83.3-5.49 83.66-7.35 83.92-9.19 84.17-11.04 84.3-12.77 84.42-14.5 84.42-16.02L84.42-16.02Q84.42-16.87 84.37-17.87 84.32-18.87 84.16-19.87 84-20.87 83.69-21.79 83.37-22.71 82.82-23.43 82.27-24.15 81.45-24.57 80.63-25 79.49-25L79.49-25Q78.36-25 77.57-24.4 76.78-23.8 76.22-22.85 75.65-21.9 75.32-20.7 75-19.51 74.82-18.3 74.65-17.09 74.59-15.99 74.53-14.89 74.53-14.14L74.53-14.14 74.53 0 66.3 0 66.3-13.13Q66.3-13.99 66.33-15.2 66.35-16.41 66.27-17.72 66.18-19.04 65.95-20.35 65.72-21.66 65.22-22.68 64.72-23.71 63.86-24.35 63.01-25 61.71-25L61.71-25Q60.62-25 59.87-24.39 59.13-23.78 58.63-22.81 58.12-21.85 57.84-20.64 57.56-19.43 57.43-18.23 57.29-17.02 57.27-15.93 57.25-14.84 57.25-14.14L57.25-14.14 57.25 0 48.97 0 48.97-28.2 52.14-28.2 55.17-21.63Q56.2-25.05 58.41-26.97 60.62-28.88 64.28-28.88L64.28-28.88Q67.57-28.88 69.75-27.51 71.92-26.15 73.16-23.07L73.16-23.07Q73.87-24.41 74.74-25.49 75.61-26.56 76.67-27.32 77.73-28.08 79.02-28.48 80.32-28.88 81.88-28.88L81.88-28.88Q84.76-28.88 86.8-27.94 88.84-27 90.13-25.34 91.43-23.68 92.01-21.4 92.6-19.12 92.6-16.46ZM104.88-13.38L104.88-13.38Q106.39-13.04 107.9-12.84 109.42-12.65 110.95-12.65L110.95-12.65Q112.57-12.65 113.95-12.95 115.32-13.26 116.34-13.98 117.35-14.7 117.94-15.89 118.52-17.09 118.52-18.87L118.52-18.87Q118.52-20.31 118.13-21.51 117.74-22.71 116.97-23.56 116.2-24.41 115.08-24.89 113.96-25.37 112.47-25.37L112.47-25.37Q111.08-25.37 109.97-24.85 108.85-24.34 108.01-23.47 107.17-22.61 106.57-21.46 105.97-20.31 105.58-19.07 105.19-17.82 105.02-16.55 104.85-15.28 104.85-14.16L104.85-14.16Q104.85-13.96 104.85-13.77 104.85-13.57 104.88-13.38ZM125.21-18.95L125.21-18.95Q125.21-17.21 124.65-15.86 124.09-14.5 123.12-13.48 122.16-12.45 120.89-11.74 119.62-11.04 118.18-10.58 116.74-10.13 115.21-9.94 113.69-9.74 112.25-9.74L112.25-9.74Q110.42-9.74 108.64-10 106.85-10.25 105.12-10.82L105.12-10.82Q105.39-9.2 105.97-7.75 106.56-6.3 107.54-5.21 108.51-4.13 109.94-3.49 111.37-2.86 113.32-2.86L113.32-2.86Q114.62-2.86 115.79-3.25 116.96-3.64 117.94-4.35 118.91-5.05 119.66-6.03 120.4-7.01 120.87-8.2L120.87-8.2 124.43-6.88Q123.63-4.96 122.22-3.55 120.82-2.15 119.05-1.23 117.28-0.32 115.29 0.12 113.3 0.56 111.35 0.56L111.35 0.56Q108.12 0.56 105.39-0.52 102.65-1.61 100.68-3.56 98.7-5.52 97.58-8.23 96.45-10.94 96.45-14.16L96.45-14.16Q96.45-17.38 97.58-20.09 98.7-22.8 100.68-24.76 102.65-26.71 105.39-27.8 108.12-28.88 111.35-28.88L111.35-28.88Q112.91-28.88 114.54-28.66 116.18-28.44 117.72-27.97 119.26-27.49 120.62-26.73 121.99-25.98 123-24.87 124.02-23.75 124.61-22.29 125.21-20.83 125.21-18.95ZM147.16-30.66L147.16 0 137.47 0 137.47-30.66 127.9-30.66 127.9-35.16 156.73-35.16 156.73-30.66 147.16-30.66ZM157.12-12.06L157.12-12.06Q157.12-13.99 157.45-16.06 157.78-18.14 158.4-20.21 159.02-22.29 159.9-24.32 160.78-26.34 161.88-28.2L161.88-28.2 167.91-28.2Q167.3-26.37 166.82-24.38 166.34-22.39 166.02-20.4 165.69-18.41 165.5-16.5 165.32-14.6 165.32-12.96L165.32-12.96Q165.32-12.01 165.4-10.93 165.49-9.84 165.71-8.75 165.93-7.67 166.33-6.67 166.74-5.66 167.37-4.9 168.01-4.13 168.92-3.67 169.84-3.22 171.08-3.22L171.08-3.22Q172.3-3.22 173.27-3.77 174.23-4.32 174.96-5.21 175.7-6.1 176.21-7.25 176.72-8.4 177.05-9.61 177.38-10.82 177.54-11.98 177.7-13.13 177.7-14.06L177.7-14.06 177.7-28.2 185.95-28.2 185.95 0 182.78 0 178.99-6.57Q178.28-4.93 177.27-3.6 176.26-2.27 174.96-1.32 173.67-0.37 172.09 0.15 170.52 0.66 168.69 0.66L168.69 0.66Q165.76 0.66 163.59-0.29 161.41-1.25 159.97-2.93 158.53-4.61 157.82-6.95 157.12-9.28 157.12-12.06ZM221.66-16.16L221.66-16.16Q221.66-13.31 220.97-10.21 220.27-7.1 219.03-4.13 217.78-1.15 216.05 1.48 214.32 4.1 212.24 6.01L212.24 6.01 209.14 4.32Q209.8 3.1 210.39 1.59 210.97 0.07 211.45-1.62 211.92-3.32 212.3-5.13 212.68-6.93 212.94-8.7 213.19-10.47 213.33-12.15 213.46-13.82 213.46-15.26L213.46-15.26Q213.46-16.21 213.39-17.3 213.32-18.38 213.08-19.47 212.85-20.56 212.46-21.56 212.07-22.56 211.42-23.32 210.78-24.07 209.86-24.54 208.94-25 207.7-25L207.7-25Q206.48-25 205.53-24.45 204.57-23.9 203.84-23.01 203.11-22.12 202.59-20.97 202.06-19.82 201.73-18.62 201.4-17.41 201.25-16.24 201.11-15.06 201.11-14.14L201.11-14.14 201.11 0 192.83 0 192.83-28.2 196.01-28.2 199.79-21.63Q200.47-23.27 201.5-24.61 202.52-25.95 203.82-26.9 205.11-27.86 206.69-28.37 208.26-28.88 210.09-28.88L210.09-28.88Q213.02-28.88 215.19-27.93 217.37-26.98 218.81-25.28 220.25-23.58 220.96-21.25 221.66-18.92 221.66-16.16ZM233.89-13.38L233.89-13.38Q235.41-13.04 236.92-12.84 238.43-12.65 239.97-12.65L239.97-12.65Q241.58-12.65 242.96-12.95 244.34-13.26 245.36-13.98 246.37-14.7 246.96-15.89 247.54-17.09 247.54-18.87L247.54-18.87Q247.54-20.31 247.15-21.51 246.76-22.71 245.99-23.56 245.22-24.41 244.1-24.89 242.98-25.37 241.49-25.37L241.49-25.37Q240.09-25.37 238.98-24.85 237.87-24.34 237.03-23.47 236.19-22.61 235.59-21.46 234.99-20.31 234.6-19.07 234.21-17.82 234.04-16.55 233.87-15.28 233.87-14.16L233.87-14.16Q233.87-13.96 233.87-13.77 233.87-13.57 233.89-13.38ZM254.23-18.95L254.23-18.95Q254.23-17.21 253.67-15.86 253.11-14.5 252.14-13.48 251.18-12.45 249.91-11.74 248.64-11.04 247.2-10.58 245.76-10.13 244.23-9.94 242.71-9.74 241.27-9.74L241.27-9.74Q239.44-9.74 237.65-10 235.87-10.25 234.14-10.82L234.14-10.82Q234.41-9.2 234.99-7.75 235.58-6.3 236.55-5.21 237.53-4.13 238.96-3.49 240.39-2.86 242.34-2.86L242.34-2.86Q243.63-2.86 244.81-3.25 245.98-3.64 246.96-4.35 247.93-5.05 248.68-6.03 249.42-7.01 249.88-8.2L249.88-8.2 253.45-6.88Q252.64-4.96 251.24-3.55 249.84-2.15 248.07-1.23 246.3-0.32 244.31 0.12 242.32 0.56 240.36 0.56L240.36 0.56Q237.14 0.56 234.41-0.52 231.67-1.61 229.69-3.56 227.72-5.52 226.59-8.23 225.47-10.94 225.47-14.16L225.47-14.16Q225.47-17.38 226.59-20.09 227.72-22.8 229.69-24.76 231.67-26.71 234.41-27.8 237.14-28.88 240.36-28.88L240.36-28.88Q241.93-28.88 243.56-28.66 245.2-28.44 246.74-27.97 248.27-27.49 249.64-26.73 251.01-25.98 252.02-24.87 253.03-23.75 253.63-22.29 254.23-20.83 254.23-18.95Z" opacity="1" transform="matrix(1,0,0,1,0,0)" fill="#ffffff" class="wordmark-text-0" data-fill-palette-color="primary" id="text-0"></path></svg></g></svg></g><g transform="matrix(1,0,0,1,94.9248,87.84423954359747)"><svg viewBox="0 0 300.5952 12.333433957081544" height="12.333433957081544" width="300.5952"><g transform="matrix(1,0,0,1,0,0)"><svg width="300.5952" viewBox="4.49 -35.01 853.21 35.01" height="12.333433957081544" data-palette-color="#81ffd9"><path d="M24.05 0L22.56 0 9.5-25.66 9.5 0 4.49 0 4.49-35.01 9.96-35.01 23.29-8.64 36.65-35.01 42.09-35.01 42.09 0 37.11 0 37.11-25.66 24.05 0ZM61.59-35.01L66.6-35.01 80.1 0 75.1 0 71.99-8.06 56.2-8.06 53.1 0 48.09 0 61.59-35.01ZM64.11-28.49L58.1-13.06 70.07-13.06 64.11-28.49ZM91.11-27.15L91.11 0 86.1 0 86.1-35.01 91.11-35.01 112.15-7.86 112.15-35.01 117.16-35.01 117.16 0 112.15 0 91.11-27.15ZM136.64-35.01L141.64-35.01 155.14 0 150.14 0 147.04-8.06 131.24-8.06 128.14 0 123.14 0 136.64-35.01ZM139.15-28.49L133.15-13.06 145.11-13.06 139.15-28.49ZM161.15-5L161.15-30Q161.15-31.03 161.54-31.95 161.93-32.86 162.61-33.53 163.3-34.2 164.21-34.61 165.13-35.01 166.15-35.01L166.15-35.01 185.15-35.01Q186.17-35.01 187.09-34.61 188-34.2 188.69-33.53 189.37-32.86 189.76-31.95 190.15-31.03 190.15-30L190.15-30 190.15-25.49 185.15-25.49 185.15-30 166.15-30 166.15-5 185.15-5 185.15-13.5 175.65-13.5 175.65-18.51 190.15-18.51 190.15-5Q190.15-3.98 189.76-3.06 189.37-2.15 188.69-1.46 188-0.78 187.09-0.39 186.17 0 185.15 0L185.15 0 166.15 0Q165.13 0 164.21-0.39 163.3-0.78 162.61-1.46 161.93-2.15 161.54-3.06 161.15-3.98 161.15-5L161.15-5ZM199.13-35.01L204.14-35.01 204.14 0 199.13 0 199.13-35.01ZM218.12-27.15L218.12 0 213.12 0 213.12-35.01 218.12-35.01 239.17-7.86 239.17-35.01 244.17-35.01 244.17 0 239.17 0 218.12-27.15ZM253.16-5L253.16-30Q253.16-31.03 253.55-31.95 253.94-32.86 254.62-33.53 255.3-34.2 256.22-34.61 257.14-35.01 258.16-35.01L258.16-35.01 277.16-35.01Q278.18-35.01 279.1-34.61 280.01-34.2 280.7-33.53 281.38-32.86 281.77-31.95 282.16-31.03 282.16-30L282.16-30 282.16-25.49 277.16-25.49 277.16-30 258.16-30 258.16-5 277.16-5 277.16-13.5 267.66-13.5 267.66-18.51 282.16-18.51 282.16-5Q282.16-3.98 281.77-3.06 281.38-2.15 280.7-1.46 280.01-0.78 279.1-0.39 278.18 0 277.16 0L277.16 0 258.16 0Q257.14 0 256.22-0.39 255.3-0.78 254.62-1.46 253.94-2.15 253.55-3.06 253.16-3.98 253.16-5L253.16-5ZM302.64-35.01L308.45-35.01 318.63-18.65 328.83-35.01 334.65-35.01 321.14-13.89 321.14 0 316.14 0 316.14-13.89 302.64-35.01ZM370.14-30L370.14-5Q370.14-3.98 369.75-3.06 369.36-2.15 368.68-1.46 367.99-0.78 367.08-0.39 366.16 0 365.14 0L365.14 0 345.14 0Q344.12 0 343.2-0.39 342.28-0.78 341.6-1.46 340.92-2.15 340.53-3.06 340.14-3.98 340.14-5L340.14-5 340.14-30Q340.14-31.03 340.53-31.95 340.92-32.86 341.6-33.53 342.28-34.2 343.2-34.61 344.12-35.01 345.14-35.01L345.14-35.01 365.14-35.01Q366.16-35.01 367.08-34.61 367.99-34.2 368.68-33.53 369.36-32.86 369.75-31.95 370.14-31.03 370.14-30L370.14-30ZM365.14-30L345.14-30 345.14-5 365.14-5 365.14-30ZM379.12-5L379.12-35.01 384.13-35.01 384.13-5 404.12-5 404.12-35.01 409.13-35.01 409.13-5Q409.13-3.98 408.74-3.06 408.35-2.15 407.66-1.46 406.98-0.78 406.06-0.39 405.15 0 404.12 0L404.12 0 384.13 0Q383.1 0 382.19-0.39 381.27-0.78 380.59-1.46 379.9-2.15 379.51-3.06 379.12-3.98 379.12-5L379.12-5ZM445.77-26.49L445.77-22.51Q445.77-15.19 439.52-14.16L439.52-14.16 446.11 0 440.57 0 434.08-13.99 423.11-13.99 423.11 0 418.11 0 418.11-35.01 437.27-35.01Q445.77-35.01 445.77-26.49L445.77-26.49ZM423.11-30L423.11-18.99 437.01-18.99Q439.01-18.99 439.89-19.87 440.77-20.75 440.77-22.75L440.77-22.75 440.77-26.25Q440.77-28.25 439.89-29.13 439.01-30 437.01-30L437.01-30 423.11-30ZM469.11-35.01L474.11-35.01 474.11-5 492.1-5 492.1 0 469.11 0 469.11-35.01ZM498.11-35.01L503.11-35.01 503.11 0 498.11 0 498.11-35.01ZM512.09 0L512.09-35.01 537.61-35.01 537.61-30 517.1-30 517.1-20 534.6-20 534.6-14.99 517.1-14.99 517.1 0 512.09 0ZM544.59 0L544.59-35.01 570.1-35.01 570.1-30 549.59-30 549.59-20 567.1-20 567.1-14.99 549.59-14.99 549.59-5 570.1-5 570.1 0 544.59 0ZM605.08 0L599.59 0 589.58-35.01 594.58-35.01 602.35-7.15 610.08-35.01 615.09-35.01 622.83-7.15 630.59-35.01 635.6-35.01 625.59 0 620.09 0 612.6-26.25 605.08 0ZM641.58-35.01L646.58-35.01 646.58 0 641.58 0 641.58-35.01ZM652.56-30L652.56-35.01 680.56-35.01 680.56-30 669.06-30 669.06 0 664.06 0 664.06-30 652.56-30ZM711.61-35.01L716.62-35.01 716.62 0 711.61 0 711.61-14.99 691.57-14.99 691.57 0 686.57 0 686.57-35.01 691.57-35.01 691.57-20 711.61-20 711.61-35.01ZM737.59-30L737.59-35.01 765.59-35.01 765.59-30 754.09-30 754.09 0 749.09 0 749.09-30 737.59-30ZM771.59-35.01L776.6-35.01 776.6 0 771.59 0 771.59-35.01ZM805.14 0L803.65 0 790.58-25.66 790.58 0 785.58 0 785.58-35.01 791.05-35.01 804.38-8.64 817.73-35.01 823.18-35.01 823.18 0 818.2 0 818.2-25.66 805.14 0ZM832.18 0L832.18-35.01 857.7-35.01 857.7-30 837.19-30 837.19-20 854.69-20 854.69-14.99 837.19-14.99 837.19-5 857.7-5 857.7 0 832.18 0Z" opacity="1" transform="matrix(1,0,0,1,0,0)" fill="#81ffd9" class="slogan-text-1" data-fill-palette-color="secondary" id="text-1"></path></svg></g></svg></g></svg></g></svg></g><g transform="matrix(1,0,0,1,412.29721814394446,0)"><svg viewBox="0 0 138.4455447779384 138.4455447779384" height="138.4455447779384" width="138.4455447779384"><g data-palette-color="#81ffd9"><rect width="37.841782239303164" height="138.4455447779384" fill="#81ffd9" stroke="transparent" data-fill-palette-color="accent" x="0" fill-opacity="1"></rect><rect width="37.841782239303164" height="138.4455447779384" fill="#81ffd9" stroke="transparent" data-fill-palette-color="accent" x="46.14851492597947" fill-opacity="0.75"></rect><rect width="37.841782239303164" height="138.4455447779384" fill="#81ffd9" stroke="transparent" data-fill-palette-color="accent" x="92.29702985195894" fill-opacity="0.5"></rect></g></svg></g></svg></g><defs></defs></svg><rect width="395.52" height="99.42569481995542" fill="none" stroke="none" visibility="hidden"></rect></g></svg></g></svg>